<?xml version="1.0" encoding="UTF-8"?>
<svg id="Camada_1" data-name="Camada 1" xmlns="http://www.w3.org/2000/svg" viewBox="0 0 1920 1920">
  <defs>
    <style>
      .cls-1 {
        font-family: Castellar, Castellar;
        font-size: 109.17px;
      }

      .cls-1, .cls-2 {
        fill: #245b28;
      }

      .cls-3 {
        stroke-width: .91px;
      }

      .cls-3, .cls-4, .cls-5 {
        fill: none;
        stroke: #3dd14e;
        stroke-miterlimit: 10;
      }

      .cls-4 {
        stroke-width: .93px;
      }

      .cls-5 {
        stroke-width: .93px;
      }
    </style>
  </defs>
  <text class="cls-1" transform="translate(682.8 1063.94)"><tspan x="0" y="0">EKOOBY</tspan></text>
  <path class="cls-4" d="M952.67,906.86c-35.8,13.64-36.38,39.06-46.6,58.17,10.28,2.49,36.41,10.64,67.06-7.31,21.07-12.12,36.54-31.04,53.64-50.21-18.72-.26-40.8-13.84-74.1-.65Z"/>
  <path class="cls-5" d="M883.35,904.42c-5.61,39.26,21.87,47.29,36.96,62.87.42,5.68,21.24-31.46,13.49-66.17-5.11-23.79-18.41-44.32-31.46-66.48-5.96,17.77-10.64,36.25-19,69.77Z"/>
  <path class="cls-3" d="M859.22,940.12c16.09,34.77,43.21,26.02,64,30.22,3.35,4.34,1.04-37.14-23.76-60.83-16.84-16.35-38.75-25.54-61.33-36.17,4.44,17.63,10.31,35.13,21.09,66.79Z"/>
  <path class="cls-2" d="M952.83,907.28c-11.94,4.49-23.07,11.86-30.2,22.62-7.37,10.65-10.31,23.49-16.37,34.87,0,0-.3-.67-.3-.67,5.9.4,11.85,1.03,17.74.98,29.68.6,54.45-15.1,75.75-34.59,8.8-7.78,17.38-16.13,26.8-23.71l.34.77c-6.35-.09-12.53-1.5-18.65-2.76-19.08-4.43-36.68-5.01-55.1,2.49h0ZM952.5,906.43c18.6-7.58,36.39-7,55.63-2.54,6.13,1.26,12.26,2.65,18.47,2.74,0,0,.92-.13.92-.13-13.46,20.63-28.67,40.68-50.17,53.81-21.87,13.77-48.21,15.75-71.59,4.69,0,0-.66,0-.66,0l.36-.67c3.04-5.63,5.23-11.69,7.66-17.66,7.58-20.1,19.12-32.61,39.38-40.24h0Z"/>
  <path class="cls-2" d="M883.8,904.51c-3.22,22.45,3.94,36.62,21.84,49.97,5.09,4,10.41,7.8,15,12.49l.09.1s.03.19.03.19c.01.12.11.29.03.17-.03-.05-.12-.07-.16-.06,1.81-1.75,2.74-4.35,3.83-6.62,1.2-2.72,2.23-5.52,3.14-8.35,5.3-16.73,7.49-35.01,2.97-52.12-2.85-11.47-7.67-22.26-13.21-32.7-2.77-5.26-5.75-10.43-8.8-15.6-2.19-3.96-5.09-7.57-6.19-12.07-.38-1.53-.59-3.16-.43-5.01,0,0,.84-.09.84-.09-7.6,22.84-13.08,46.4-18.98,69.71h0ZM882.89,904.33c5.99-23.68,11.51-47.42,19.27-70.6,0,0,.58.68.59.68,3.15,1.4,5.31,3.6,7.18,6.25,4.73,7.78,9.22,15.65,13.45,23.76,8.36,16.36,15.19,34.44,14.7,53.09-.53,15.38-4.63,30.57-11.9,44.08-.9,1.44-4.23,7.76-5.99,6.61-.37-.38-.29-.63-.34-.87l.13.29c-9.11-9.2-21.1-15.42-29.03-25.91-8.34-10.46-10.02-24.49-8.05-37.38h0Z"/>
  <path class="cls-2" d="M859.64,939.95c5.1,11.33,13.92,21.64,26.18,25.25,5.97,1.92,12.28,2.56,18.56,2.94,6.29.39,12.66.52,18.93,1.75l.13.03.14.14c.07.08.25.15.11.09-.04-.02-.09,0-.12,0-.02,0-.04,0-.05.02,0-.03.01-.04.03-.11.47-5.17-1.25-10.63-2.49-15.63-3.1-10.96-7.76-21.46-14.24-30.79-9.84-13.95-24.24-23.22-39.18-31.28-10.15-5.29-20.78-10.03-29.68-18.62-.02,0,.64-.52.63-.53,5.75,22.59,13.65,44.66,21.07,66.73h0ZM858.8,940.29c-7.55-22.45-15.53-44.69-21.31-67.67,0,0,.84.3.85.3,18.19,2.24,33.7,11.42,48.66,21.23,15.64,10.75,26.94,24.11,33.08,42.22,2.98,8.47,4.84,17.27,5.23,26.22,0,2.66.24,5.44-.78,7.97-.1.18-.31.44-.53.53-.53.23-.99-.23-1.14-.48-10.81-1.82-25.61-.77-37.32-4.55-12.51-3.69-21.54-14.18-26.75-25.78h0Z"/>
  <path class="cls-2" d="M971.53,903.16c3.02-12.87,5.94-26.16,4.78-39.37-1.02-10.47-4.35-20.36-5.48-30.98,0,0,6.55,4.05,6.55,4.05-5.49,1.89-10.9,3.23-16.1,4.74-16.62,4.39-28.96,12.69-39.66,26.15,0,0-.85-.59-.85-.59,2.94-4.7,6.18-9.26,9.96-13.45,7.51-8.47,17.66-14.72,28.04-19.03,7.08-2.97,13.89-5.86,20.48-9.29,0,0,1.03,6.79,1.03,6.79.02,5.81.52,11.58,1.12,17.58.62,6.04,1.03,12.43.4,18.54-1.19,12.26-5.14,23.76-9.28,35.17,0,0-.99-.31-.99-.31h0Z"/>
</svg>